<?xml version="1.0" encoding="utf-8"?>
<!-- Generator: Adobe Illustrator 25.2.3, SVG Export Plug-In . SVG Version: 6.00 Build 0)  -->
<svg version="1.1" id="레이어_1" xmlns="http://www.w3.org/2000/svg" xmlns:xlink="http://www.w3.org/1999/xlink" x="0px"
	 y="0px" viewBox="0 0 24 24" style="enable-background:new 0 0 24 24;" xml:space="preserve">
<path d="M12,21.1c-0.4,0-0.8-0.1-1.1-0.4c-2.2-1.6-7.3-5.6-8.6-8c-1.7-3.1-0.7-7.2,2.3-9c0.9-0.6,2-0.9,3.1-0.9
	c1.6,0,3.2,0.7,4.3,1.9c1.1-1.2,2.7-1.9,4.3-1.9c1.1,0,2.2,0.3,3.1,0.9c2.9,1.8,3.9,5.9,2.3,9c-1.3,2.4-6.4,6.4-8.6,8
	C12.8,21,12.4,21.1,12,21.1z M7.7,4.2C6.8,4.2,6,4.4,5.3,4.9c-2.3,1.5-3.2,4.7-1.8,7.3c1.2,2.2,6.6,6.3,8.2,7.5
	c0.2,0.1,0.4,0.1,0.6,0c1.6-1.2,7-5.3,8.2-7.5c1.4-2.5,0.6-5.8-1.8-7.3c-0.7-0.5-1.6-0.7-2.4-0.7c-1.5,0-2.8,0.7-3.8,2L12,6.9
	l-0.5-0.7C10.5,4.9,9.2,4.2,7.7,4.2z"/>
</svg>
