<?xml version="1.0" encoding="utf-8"?>
<!-- Generator: Adobe Illustrator 25.2.3, SVG Export Plug-In . SVG Version: 6.00 Build 0)  -->
<svg version="1.1" id="레이어_1" xmlns="http://www.w3.org/2000/svg" xmlns:xlink="http://www.w3.org/1999/xlink" x="0px"
	 y="0px" viewBox="0 0 24 24" style="enable-background:new 0 0 24 24;" xml:space="preserve">
<style type="text/css">
	.st0{fill-rule:evenodd;clip-rule:evenodd;stroke:#FFFFFF;stroke-width:0.1;}
</style>
<path class="st0" d="M22.9,3.4C22.7,3.2,22.4,3,22.1,3L2.9,3C2.5,3,2.2,3.3,2.1,3.6C2,3.9,2,4.1,2.1,4.4c0.1,0.1,0.1,0.2,0.2,0.2
	L9.7,11l1.8,9.6c0.1,0.4,0.4,0.7,0.7,0.7c0.4,0.1,0.7-0.1,0.9-0.4l9.7-16.5C23,4.1,23,3.7,22.9,3.4z M4.2,4.4h15.6l-9.4,5.4L4.2,4.4
	z M12.6,19l-1.5-8l9.4-5.4L12.6,19z"/>
</svg>
