<?xml version="1.0" encoding="utf-8"?>
<!-- Generator: Adobe Illustrator 25.2.3, SVG Export Plug-In . SVG Version: 6.00 Build 0)  -->
<svg version="1.1" id="레이어_1" xmlns="http://www.w3.org/2000/svg" xmlns:xlink="http://www.w3.org/1999/xlink" x="0px"
	 y="0px" viewBox="0 0 24 24" style="enable-background:new 0 0 24 24;" xml:space="preserve">
<style type="text/css">
	.st0{stroke:#FFFFFF;stroke-width:0.5;stroke-miterlimit:10;}
</style>
<g id="XMLID_92_">
	<path id="XMLID_93_" class="st0" d="M12,1.5C6.2,1.5,1.5,6.2,1.5,12S6.2,22.5,12,22.5S22.5,17.8,22.5,12S17.8,1.5,12,1.5z M12,20.6
		c-4.7,0-8.6-3.8-8.6-8.6S7.3,3.4,12,3.4s8.6,3.8,8.6,8.6S16.7,20.6,12,20.6z"/>
	<path id="XMLID_104_" class="st0" d="M14.6,14.6c-1.4,1.4-3.7,1.4-5.1,0c-0.4-0.4-1-0.4-1.3,0c-0.4,0.4-0.4,1,0,1.3
		c1.1,1.1,2.5,1.6,3.9,1.6c1.4,0,2.8-0.5,3.9-1.6c0.4-0.4,0.4-1,0-1.3C15.5,14.2,14.9,14.2,14.6,14.6z"/>
	<path id="XMLID_105_" class="st0" d="M9.1,12.5c0.2-0.2,0.4-0.6,0.4-0.9S9.4,11,9.1,10.7c-0.2-0.2-0.6-0.4-0.9-0.4
		c-0.3,0-0.7,0.1-0.9,0.4C7.1,11,7,11.3,7,11.6s0.1,0.7,0.4,0.9c0.2,0.2,0.6,0.4,0.9,0.4S8.9,12.8,9.1,12.5z"/>
	<path id="XMLID_1_" class="st0" d="M16.7,12.5c0.2-0.2,0.4-0.6,0.4-0.9s-0.1-0.7-0.4-0.9c-0.2-0.2-0.6-0.4-0.9-0.4
		c-0.3,0-0.7,0.1-0.9,0.4c-0.2,0.2-0.4,0.6-0.4,0.9s0.1,0.7,0.4,0.9c0.2,0.2,0.6,0.4,0.9,0.4C16.1,12.9,16.4,12.8,16.7,12.5z"/>
</g>
</svg>
