<?xml version="1.0" encoding="UTF-8"?>
<svg width="90px" height="90px" viewBox="0 0 90 90" version="1.1" xmlns="http://www.w3.org/2000/svg" xmlns:xlink="http://www.w3.org/1999/xlink">
    <title>comment</title>
    <g id="comment" stroke="none" stroke-width="1" fill="none" fill-rule="evenodd">
        <g transform="translate(45.000000, 45.000000) scale(-1, 1) translate(-45.000000, -45.000000) translate(11.000000, 12.000000)" fill-rule="nonzero" id="Path" stroke="#333333" stroke-width="6">
            <path d="M33.6263736,0 C15.0534066,0 0,12.9528733 0,28.9324887 C0,35.18681 2.30751648,40.9745023 6.2290989,45.7064932 C7.3298022,47.0347059 7.71314286,47.3923303 7.71314286,47.3923303 C8.91472527,48.5144796 9.69784615,50.5303167 9.452,51.8771946 C9.20615385,53.2203394 9.00514286,54.3215837 9.00514286,54.3215837 L7.19006593,64.258914 C6.89564835,65.8745701 7.76918681,66.441991 9.13068132,65.5236652 L17.4334066,59.9211312 L20.9215824,57.5685747 C21.9430769,56.8779638 23.7648791,56.5307919 24.9687033,56.7958371 C24.9687033,56.7958371 29.8303297,57.861991 33.6263736,57.861991 C52.1970989,57.861991 67.2527473,44.908371 67.2527473,28.9332353 C67.2527473,12.9536199 52.1970989,0 33.6263736,0 Z"></path>
        </g>
    </g>
</svg>