<?xml version="1.0" encoding="UTF-8"?>
<svg width="90px" height="90px" viewBox="0 0 90 90" version="1.1" xmlns="http://www.w3.org/2000/svg" xmlns:xlink="http://www.w3.org/1999/xlink">
    <title>heart</title>
    <g id="heart" stroke="none" stroke-width="1" fill="none" fill-rule="evenodd" stroke-linejoin="round">
        <g transform="translate(8.000000, 13.000000)" fill-rule="nonzero" id="Path" stroke="#333333" stroke-width="6">
            <path d="M72.7233636,13.122 C70.2868182,5.42454545 63.5139091,0.252818182 55.8688182,0.252818182 C50.9981818,0.252818182 46.0858182,2.13627273 42.3884545,5.42045455 C39.1451818,8.30127273 37.1136364,13.14 37.004,13.4083636 C36.9712727,13.4983636 36.9393636,13.5801818 36.9090909,13.6521818 C36.8714545,13.5654545 36.8305455,13.4631818 36.788,13.3453636 C36.7029091,13.1408182 34.6713636,8.30127273 31.4280909,5.42045455 C27.7307273,2.13627273 22.8175455,0.252818182 17.9485455,0.252818182 C10.3018182,0.252818182 3.53054545,5.42454545 1.09563636,13.122 C-3.21209091,26.7406364 6.48254545,43.4937273 27.0279091,57.9354545 C29.8089091,59.8909091 34.6762727,62.9001818 34.8824545,63.0286364 C35.4412727,63.3747273 36.1612727,63.5653636 36.9082727,63.5653636 C37.6552727,63.5653636 38.3752727,63.3747273 38.9365455,63.0294545 C39.1427273,62.901 44.0084545,59.8917273 46.7902727,57.9354545 C67.3356364,43.4945455 77.0302727,26.7414545 72.7233636,13.122 Z"></path>
        </g>
    </g>
</svg>