<?xml version="1.0" encoding="UTF-8"?>
<svg width="90px" height="90px" viewBox="0 0 90 90" version="1.1" xmlns="http://www.w3.org/2000/svg" xmlns:xlink="http://www.w3.org/1999/xlink">
    <title>magnify</title>
    <g id="magnify" stroke="none" stroke-width="1" fill="none" fill-rule="evenodd">
        <g fill="#AAAAAA" fill-rule="nonzero" id="Shape">
            <path d="M88.4,79.7142857 L66.1,57.6593407 C70.6,51.6263736 73.2,44.2087912 73.2,36.1978022 C73.2,16.2197802 56.8,0 36.6,0 C16.4,0 0,16.2197802 0,36.1978022 C0,56.1758242 16.4,72.3956044 36.6,72.3956044 C44.7,72.3956044 52.2,69.7252747 58.3,65.3736264 L80.6,87.4285714 C82.8,89.6043956 86.3,89.6043956 88.4,87.4285714 C90.5,85.2527473 90.5,81.7912088 88.4,79.7142857 Z M36.6,61.4175824 C22.5,61.4175824 11,50.1428571 11,36.1978022 C11,22.2527473 22.5,10.8791209 36.6,10.8791209 C50.7,10.8791209 62.1,22.2527473 62.1,36.0989011 C62.1,50.1428571 50.7,61.4175824 36.6,61.4175824 Z"></path>
        </g>
    </g>
</svg>