<svg width="175" height="51" viewBox="0 0 175 51" fill="none" xmlns="http://www.w3.org/2000/svg">
<rect width="175" height="51" fill="white"/>
<path d="M40.0336 2.32921C39.8054 2.87916 39.5772 3.60704 39.349 4.51284C39.1534 5.41865 38.9904 6.25975 38.86 7.03615C38.7296 7.97431 38.5666 9.26832 38.371 10.9182C38.1754 12.5357 37.9962 14.3149 37.8332 16.2559C37.6702 18.1646 37.5235 20.138 37.3931 22.176C37.2627 24.1817 37.1975 26.058 37.1975 27.8049C37.1975 28.4843 37.2138 28.9534 37.2464 29.2122C37.3116 29.4386 37.4257 29.7136 37.5887 30.0371C37.3279 30.3283 37.0019 30.5385 36.6107 30.6679C36.2521 30.8297 35.8772 30.9429 35.486 31.0076C35.1274 31.0723 34.7688 31.1047 34.4102 31.1047C34.0842 31.137 33.8234 31.1532 33.6279 31.1532C32.8129 31.1532 32.0142 30.9106 31.2318 30.4253C30.482 29.9077 29.8463 28.9696 29.3248 27.6108C29.0314 26.8668 28.7706 25.8801 28.5424 24.6508C28.3468 23.3892 28.1512 22.1437 27.9556 20.9144C27.7926 19.6851 27.6459 18.6013 27.5155 17.6632C27.3851 16.6927 27.2547 16.1265 27.1243 15.9648C26.7331 16.7735 26.3419 17.8735 25.9507 19.2645C25.5921 20.6232 25.2661 22.0143 24.9728 23.4377C24.6794 24.8611 24.4349 26.2036 24.2393 27.4653C24.0763 28.6946 23.9948 29.5842 23.9948 30.1342C23.9948 30.5547 24.06 30.7812 24.1904 30.8135C23.9948 31.0076 23.571 31.1855 22.919 31.3473C22.2996 31.509 21.7943 31.5899 21.4031 31.5899H21.2075C20.7512 31.5252 20.3111 31.3958 19.8873 31.2017C19.4961 31.04 19.1538 30.8782 18.8604 30.7165C18.4692 30.49 18.1758 30.2797 17.9802 30.0856C18.0128 29.6327 18.0291 29.1637 18.0291 28.6784C18.0291 28.1932 18.0291 27.6917 18.0291 27.1741V21.4967C18.0291 20.6232 18.0128 19.6365 17.9802 18.5366C17.9802 17.4367 17.9639 16.4177 17.9313 15.4795C17.9313 14.509 17.915 13.7003 17.8824 13.0533C17.8824 12.4063 17.8824 12.0666 17.8824 12.0343C17.8172 11.4196 17.7683 10.627 17.7357 9.65652C17.7031 8.68601 17.589 7.74786 17.3934 6.84205C17.2304 5.9039 16.937 5.09515 16.5133 4.41579C16.1221 3.73644 15.5027 3.39676 14.6551 3.39676C14.1987 3.39676 13.7749 3.50999 13.3837 3.73644C13.0251 3.96289 12.6665 4.20552 12.308 4.46432C11.6234 5.01427 11.0203 5.74215 10.4987 6.64795C10.0097 7.52141 9.60222 8.47574 9.27622 9.51094C8.98283 10.5138 8.75464 11.5328 8.59164 12.568C8.46124 13.6032 8.39604 14.5576 8.39604 15.431C8.39604 15.7222 8.41234 16.1104 8.44494 16.5956C8.51014 17.0485 8.60794 17.5014 8.73834 17.9543C8.86873 18.4072 9.04803 18.8116 9.27622 19.1675C9.50442 19.491 9.81411 19.6527 10.2053 19.6527L11.4767 19.4586C11.6723 19.4586 11.9005 19.5071 12.1613 19.6042C12.422 19.7012 12.6665 19.8306 12.8947 19.9924C13.1555 20.1541 13.3674 20.3321 13.5304 20.5262C13.6934 20.7203 13.7749 20.9305 13.7749 21.157C13.7749 21.3187 13.6934 21.4643 13.5304 21.5937C13.3674 21.7231 13.1718 21.8363 12.9436 21.9334C12.7154 21.9981 12.4872 22.0466 12.2591 22.079C12.0309 22.1113 11.8353 22.1275 11.6723 22.1275C10.5639 22.1275 9.63482 21.9172 8.88503 21.4967C8.16785 21.0761 7.59736 20.5262 7.17357 19.8468C6.71718 19.1351 6.40749 18.3264 6.24449 17.4206C6.0815 16.5147 6 15.5928 6 14.6546C6 13.8459 6.0815 12.9239 6.24449 11.8887C6.40749 10.8211 6.66828 9.75357 7.02688 8.68601C7.35287 7.61846 7.76036 6.56708 8.24935 5.53187C8.77094 4.49667 9.37402 3.57469 10.0586 2.76594C10.7432 1.95718 11.5093 1.31018 12.3569 0.824927C13.237 0.339675 14.1824 0.0970492 15.193 0.0970492C15.2908 0.0970492 15.519 0.16175 15.8776 0.29115C16.2688 0.388202 16.497 0.452902 16.5622 0.485252C17.4423 0.841103 18.1921 1.47193 18.8115 2.37773C19.4309 3.28354 19.9362 4.35109 20.3274 5.5804C20.7512 6.80971 21.0771 8.16841 21.3053 9.65652C21.5661 11.1123 21.7617 12.5842 21.8921 14.0723C22.0225 15.5281 22.104 16.9515 22.1366 18.3425C22.1692 19.7336 22.1855 20.9629 22.1855 22.0304C22.1855 22.3539 22.1855 22.6613 22.1855 22.9524C22.2181 23.2436 22.2344 23.5186 22.2344 23.7774C23.6036 20.0571 24.5327 17.0324 25.0217 14.7031C25.5106 12.3416 25.7551 10.7564 25.7551 9.94767L25.6573 9.17127C25.7225 9.13892 25.804 9.10656 25.9018 9.07421C26.0322 9.00951 26.13 8.97716 26.1952 8.97716C26.4234 8.97716 26.7331 9.04186 27.1243 9.17127C27.5481 9.30067 27.9719 9.46242 28.3957 9.65652C28.8195 9.81827 29.1944 10.0124 29.5203 10.2388C29.8789 10.4329 30.1071 10.627 30.2049 10.8211C30.4005 11.1123 30.5146 11.3711 30.5472 11.5975C30.6124 11.824 30.6776 12.196 30.7428 12.7136V12.9077C31.0688 17.2426 31.4926 20.607 32.0142 23.001C32.5358 25.3625 33.0085 26.5433 33.4323 26.5433H33.4812C33.7094 26.3492 33.8723 25.7831 33.9701 24.8449C34.1005 23.8744 34.2146 22.6289 34.3124 21.1085C34.4102 19.5557 34.508 17.7602 34.6058 15.7222C34.7362 13.6518 34.8992 11.4196 35.0948 9.02569C35.3556 5.88773 35.5838 3.60704 35.7794 2.18363C35.975 0.727878 36.301 0 36.7574 0C37.0182 0 37.3279 0.0808753 37.6865 0.242626C38.0776 0.404376 38.4362 0.598477 38.7622 0.824927C39.1208 1.05138 39.4305 1.29401 39.6913 1.55281C39.9521 1.77926 40.0825 1.98953 40.0825 2.18363L40.0336 2.32921Z" fill="#262626"/>
<path d="M55.1147 23.0495C55.1147 23.8582 54.968 24.764 54.6746 25.7669C54.3812 26.7697 53.9248 27.7079 53.3054 28.5814C52.6861 29.4225 51.8874 30.1342 50.9094 30.7165C49.964 31.2988 48.823 31.5899 47.4865 31.5899C46.2151 31.5899 45.1393 31.3635 44.2591 30.9106C43.379 30.4577 42.6455 29.843 42.0587 29.0666C41.5045 28.2902 41.097 27.3844 40.8362 26.3492C40.608 25.2816 40.4939 24.1656 40.4939 23.001C40.4939 21.8687 40.6243 20.6232 40.8851 19.2645C41.1459 17.9058 41.5534 16.6441 42.1076 15.4795C42.6618 14.2826 43.3627 13.2959 44.2103 12.5195C45.0578 11.7108 46.0847 11.3064 47.2909 11.3064C47.8777 11.3064 48.4319 11.4358 48.9534 11.6946C49.475 11.921 49.9314 12.2284 50.3226 12.6166C50.7138 13.0048 51.0235 13.4577 51.2517 13.9753C51.4799 14.4929 51.6103 15.0266 51.6429 15.5766L51.6918 16.2559C51.6918 17.0324 51.5614 17.8896 51.3006 18.8278C51.0398 19.7336 50.6649 20.5909 50.1759 21.3996C49.6869 22.176 49.0838 22.8392 48.3667 23.3892C47.6495 23.9068 46.8345 24.1656 45.9217 24.1656C45.7587 24.1656 45.5468 24.1494 45.286 24.117C45.0578 24.0847 44.8296 24.0362 44.6014 23.9715V25.3787C44.6014 25.6051 44.6666 25.9286 44.797 26.3492C44.96 26.7697 45.1882 27.1903 45.4816 27.6108C45.775 27.999 46.1499 28.3549 46.6063 28.6784C47.0953 28.9696 47.6821 29.1151 48.3667 29.1151C49.312 29.1151 50.0781 28.9372 50.6649 28.5814C51.2843 28.1931 51.7896 27.7079 52.1808 27.1256C52.572 26.5433 52.8653 25.8963 53.0609 25.1846C53.2891 24.4405 53.4684 23.7288 53.5988 23.0495C53.6966 22.5966 53.7944 22.2892 53.8922 22.1275C53.99 21.9657 54.153 21.8849 54.3812 21.8849C54.8702 21.8849 55.1147 22.1598 55.1147 22.7098V23.0495ZM49.3446 15.5281C49.3446 15.2693 49.2631 14.9943 49.1001 14.7031C48.9697 14.412 48.7089 14.2664 48.3178 14.2664C47.731 14.2664 47.2257 14.5737 46.8019 15.1884C46.3781 15.803 46.0195 16.5147 45.7261 17.3235C45.4653 18.0999 45.2697 18.8601 45.1393 19.6042C45.0089 20.3159 44.9437 20.785 44.9437 21.0114V21.157C44.9437 21.4481 44.96 21.6908 44.9926 21.8849C45.0578 22.0466 45.2371 22.1275 45.5305 22.1275H45.775C46.427 22.1275 46.9812 21.8849 47.4376 21.3996C47.894 20.9144 48.2526 20.3321 48.5134 19.6527C48.8067 18.9734 49.0186 18.2778 49.149 17.5661C49.2794 16.8544 49.3446 16.2721 49.3446 15.8192V15.5281Z" fill="#262626"/>
<path d="M65.5561 27.5138C65.5561 28.2902 65.2953 28.8887 64.7737 29.3092C64.2522 29.7298 63.6491 30.0371 62.9645 30.2312C62.3125 30.4253 61.6442 30.5385 60.9596 30.5709C60.3077 30.6356 59.835 30.6679 59.5416 30.6679C59.0852 30.6679 58.5147 30.6194 57.8301 30.5224C57.1781 30.4253 56.5261 30.2797 55.8742 30.0856C55.2548 29.8592 54.7169 29.5519 54.2605 29.1637C53.8367 28.7755 53.6248 28.2902 53.6248 27.7079C53.6248 27.352 53.7552 27.1094 54.016 26.98C54.3094 26.8183 54.5865 26.7374 54.8473 26.7374C55.2059 26.7374 55.5482 26.8668 55.8742 27.1256C56.2327 27.3844 56.5913 27.6594 56.9499 27.9505C57.3411 28.2417 57.7649 28.5167 58.2213 28.7755C58.6777 29.0343 59.1993 29.1637 59.7861 29.1637C60.0469 29.1637 60.3891 29.0828 60.8129 28.921C61.2693 28.7269 61.4975 28.4034 61.4975 27.9505C61.4975 27.4976 61.3019 27.0609 60.9107 26.6403C60.5521 26.2198 60.0795 25.7831 59.4927 25.3302C58.9385 24.8773 58.3354 24.4082 57.6834 23.9229C57.0314 23.4377 56.412 22.9201 55.8253 22.3701C55.2711 21.7878 54.7984 21.157 54.4072 20.4776C54.0486 19.7983 53.8693 19.0542 53.8693 18.2455C53.8693 17.1132 54.2279 16.1589 54.9451 15.3825C55.6949 14.6061 56.5587 13.9914 57.5367 13.5385C58.5473 13.0856 59.5742 12.7621 60.6173 12.568C61.6605 12.3739 62.4755 12.2769 63.0623 12.2769C63.6165 12.2769 64.1707 12.3901 64.7248 12.6166C65.279 12.843 65.5561 13.2797 65.5561 13.9267C65.5561 14.1208 65.5072 14.412 65.4094 14.8002C65.3442 15.156 65.2138 15.5119 65.0182 15.8677C64.8552 16.2236 64.6271 16.5471 64.3337 16.8383C64.0403 17.0971 63.6654 17.2265 63.209 17.2265C63.0786 17.2265 62.9482 17.1779 62.8178 17.0809C62.6874 16.9515 62.5407 16.8221 62.3777 16.6927C62.2147 16.5309 62.0354 16.4015 61.8398 16.3045C61.6768 16.1751 61.4812 16.1104 61.253 16.1104C60.1121 16.1104 59.3134 16.45 58.857 17.1294C58.4006 17.7764 58.1724 18.4719 58.1724 19.216C58.1724 19.863 58.5473 20.5423 59.2971 21.254C60.0795 21.9657 60.927 22.6775 61.8398 23.3892C62.7852 24.1009 63.6328 24.8126 64.3826 25.5243C65.1649 26.2036 65.5561 26.8668 65.5561 27.5138Z" fill="#262626"/>
<path d="M66.6094 21.7393C66.642 20.0894 66.6909 18.4072 66.7561 16.6927C66.8213 14.9781 66.8865 13.393 66.9517 11.9372C66.9517 11.6784 66.6909 11.5005 66.1693 11.4034C65.6477 11.3064 65.0609 11.2093 64.4089 11.1123C63.7569 11.0152 63.1701 10.8696 62.6486 10.6755C62.127 10.4491 61.8662 10.0932 61.8662 9.60799C61.8662 9.18744 62.29 8.94481 63.1375 8.88011C63.9851 8.81541 65.2402 8.78306 66.9028 8.78306C67.0332 8.78306 67.1147 8.58896 67.1473 8.20076C67.2125 7.81256 67.2451 7.32731 67.2451 6.745C67.2777 6.13035 67.294 5.48335 67.294 4.804C67.3265 4.12464 67.3591 3.49382 67.3917 2.91151C67.4243 2.29686 67.4732 1.79543 67.5384 1.40723C67.6362 1.01903 67.7503 0.824927 67.8807 0.824927C68.0437 0.824927 68.3371 0.857277 68.7609 0.921979C69.1847 0.986678 69.6248 1.08373 70.0812 1.21313C70.5376 1.31018 70.9288 1.43958 71.2548 1.60133C71.6133 1.76308 71.7926 1.94101 71.7926 2.13511L71.2548 8.44339C71.2548 8.63749 71.4178 8.78306 71.7437 8.88011C72.1023 8.94481 72.5424 8.99334 73.064 9.02569C73.6182 9.02569 74.1887 9.02569 74.7755 9.02569C75.3949 9.02569 75.9653 9.07422 76.4869 9.17127C77.0411 9.26832 77.4812 9.43007 77.8072 9.65652C78.1658 9.85062 78.3451 10.1579 78.3451 10.5785C78.3451 10.6432 78.3125 10.7564 78.2473 10.9182C78.1821 11.0476 78.1006 11.1123 78.0028 11.1123C77.9376 11.1123 77.8398 11.0637 77.7094 10.9667C77.6116 10.8696 77.3182 10.8211 76.8292 10.8211C76.6988 10.8211 76.3402 10.8373 75.7535 10.8696C75.1667 10.902 74.5473 10.9505 73.8953 11.0152C73.2433 11.0799 72.6402 11.1608 72.086 11.2579C71.5645 11.3226 71.2711 11.4196 71.2059 11.549C71.1733 11.6137 71.1244 12.0019 71.0592 12.7136C71.0266 13.393 70.9777 14.2988 70.9125 15.431C70.8799 16.5633 70.8473 17.8735 70.8147 19.3616C70.7821 20.8173 70.7658 22.354 70.7658 23.9715C70.7658 24.5861 70.7984 25.1846 70.8636 25.7669C70.9288 26.3492 71.0266 26.883 71.157 27.3682C71.2874 27.8211 71.4504 28.1932 71.646 28.4843C71.8741 28.7755 72.1349 28.921 72.4283 28.921C72.8521 28.921 73.2433 28.7431 73.6019 28.3873C73.9605 28.0314 74.2865 27.5461 74.5799 26.9315C74.8733 26.3168 75.1341 25.6213 75.3623 24.8449C75.5905 24.0685 75.7861 23.2759 75.949 22.4672C76.0468 21.9819 76.1609 21.6422 76.2913 21.4481C76.4217 21.2217 76.6173 21.1085 76.8781 21.1085C77.1063 21.1085 77.3019 21.1893 77.4649 21.3511C77.6605 21.4805 77.7583 21.804 77.7583 22.3216C77.7583 22.6451 77.742 22.8554 77.7094 22.9524C77.6116 23.5347 77.416 24.3435 77.1226 25.3787C76.8618 26.3815 76.4869 27.3844 75.998 28.3873C75.5416 29.3578 74.9711 30.215 74.2865 30.9591C73.6019 31.7031 72.8032 32.0752 71.8904 32.0752C71.0103 32.0752 70.2442 31.8164 69.5922 31.2988C68.9402 30.8135 68.386 30.1342 67.9296 29.2607C67.5058 28.3549 67.1799 27.3035 66.9517 26.1066C66.7235 24.8773 66.6094 23.5671 66.6094 22.176V21.7393Z" fill="#262626"/>
<path d="M95.627 25.2331C95.5618 25.686 95.3988 26.2198 95.138 26.8344C94.8772 27.4491 94.5349 28.0476 94.1112 28.6299C93.72 29.1798 93.2473 29.6489 92.6931 30.0371C92.1715 30.4253 91.5847 30.6194 90.9327 30.6194C89.9548 30.6194 89.0909 30.2474 88.3411 29.5033C87.6239 28.7593 87.1838 27.7079 87.0208 26.3492C86.8252 26.8668 86.597 27.4653 86.3362 28.1446C86.0754 28.824 85.7495 29.4548 85.3583 30.0371C84.9671 30.6194 84.5107 31.1047 83.9891 31.4929C83.5001 31.9134 82.9133 32.1237 82.2287 32.1237C82.0331 32.1237 81.8864 32.1075 81.7886 32.0752C81.6908 32.0428 81.5767 31.9943 81.4463 31.9296C81.3486 31.8972 81.2182 31.8649 81.0552 31.8325C80.9248 31.8002 80.7292 31.784 80.4684 31.784C79.686 31.784 79.0177 31.5252 78.4635 31.0076C77.9419 30.5224 77.5181 29.8915 77.1922 29.1151C76.8662 28.3387 76.6217 27.4976 76.4587 26.5918C76.3283 25.6537 76.2631 24.7802 76.2631 23.9715C76.2631 22.0304 76.3609 20.1865 76.5565 18.4396C76.7847 16.6927 77.1433 15.156 77.6322 13.8297C78.1212 12.471 78.7569 11.4034 79.5393 10.627C80.3217 9.81827 81.2671 9.41389 82.3754 9.41389C83.0274 9.41389 83.5164 9.47859 83.8424 9.60799C84.201 9.70504 84.527 9.83444 84.8204 9.99619C85.1138 10.1256 85.4235 10.2712 85.7495 10.4329C86.108 10.5947 86.597 10.7241 87.2164 10.8211C87.901 11.2093 88.3737 11.6784 88.6345 12.2284C88.9279 12.746 89.1072 13.3121 89.1724 13.9267C89.2702 14.5414 89.3028 15.1884 89.2702 15.8677C89.2376 16.5147 89.2702 17.1618 89.368 17.8088C89.368 17.8411 89.4332 17.8896 89.5636 17.9543C89.7266 18.019 89.9059 18.0999 90.1014 18.197C90.297 18.2617 90.46 18.3749 90.5904 18.5366C90.7534 18.666 90.8349 18.844 90.8349 19.0704V19.2645C90.5089 20.1056 90.3133 20.8497 90.2481 21.4967C90.183 22.1437 90.1504 22.9201 90.1504 23.8259C90.1504 24.2788 90.1666 24.7802 90.1992 25.3302C90.2644 25.8478 90.3459 26.3492 90.4437 26.8344C90.5741 27.2873 90.7534 27.6756 90.9816 27.9991C91.2098 28.2902 91.5032 28.4358 91.8618 28.4358C92.253 28.4358 92.5953 28.2417 92.8887 27.8535C93.2147 27.4653 93.4755 27.0285 93.6711 26.5433C93.8993 26.0257 94.0786 25.5081 94.2089 24.9905C94.3719 24.4729 94.4697 24.0847 94.5023 23.8259C94.5675 23.4377 94.7305 23.2436 94.9913 23.2436C95.1543 23.2436 95.301 23.3406 95.4314 23.5347C95.5944 23.6965 95.6759 24.0038 95.6759 24.4567C95.6759 24.5861 95.6759 24.7155 95.6759 24.8449C95.6759 24.942 95.6596 25.0714 95.627 25.2331ZM86.5807 17.372C86.5807 17.0162 86.5481 16.5956 86.4829 16.1104C86.4177 15.6251 86.3036 15.1722 86.1406 14.7517C85.9776 14.3311 85.7331 13.9753 85.4072 13.6841C85.0812 13.393 84.6411 13.2474 84.0869 13.2474C83.1741 13.2474 82.4243 13.6679 81.8375 14.509C81.2834 15.3178 80.8433 16.2883 80.5173 17.4206C80.1913 18.5205 79.9794 19.6689 79.8816 20.8658C79.7838 22.0304 79.7349 22.9524 79.7349 23.6318C79.7349 24.1494 79.7512 24.7802 79.7838 25.5243C79.849 26.236 79.9468 26.9153 80.0772 27.5623C80.2076 28.2093 80.3869 28.7593 80.6151 29.2122C80.8759 29.6651 81.2019 29.8915 81.593 29.8915C82.5384 29.8915 83.2556 29.5357 83.7446 28.824C84.2662 28.0799 84.6574 27.1741 84.9182 26.1066C85.179 25.0067 85.3583 23.8421 85.4561 22.6128C85.5865 21.3511 85.7006 20.2027 85.7983 19.1675C85.8635 18.6175 86.0102 18.2778 86.2384 18.1484C86.4666 17.9867 86.5807 17.8735 86.5807 17.8088V17.372Z" fill="#262626"/>
<path d="M110.408 31.784C110.408 32.1075 110.262 32.334 109.968 32.4634C109.675 32.5928 109.398 32.6575 109.137 32.6575L108.159 32.5604C107.996 32.5604 107.914 32.6575 107.914 32.8516L107.865 33.4339C107.898 34.3073 107.914 35.4072 107.914 36.7336C107.914 38.0599 107.914 39.3378 107.914 40.5671C107.914 41.8611 107.865 43.1227 107.768 44.352C107.702 45.6137 107.523 46.7298 107.23 47.7003C106.936 48.7031 106.513 49.4957 105.958 50.078C105.437 50.6927 104.703 51 103.758 51C102.943 51 102.079 50.9515 101.166 50.8544C100.286 50.7897 99.4712 50.5956 98.7214 50.2721C98.0042 49.9486 97.4011 49.4634 96.9121 48.8164C96.4558 48.2017 96.2276 47.3606 96.2276 46.2931C96.2276 45.2255 96.3417 44.1256 96.5699 42.9933C96.8306 41.8934 97.1892 40.8097 97.6456 39.7422C98.102 38.7069 98.6399 37.7041 99.2593 36.7336C99.9113 35.7954 100.612 34.9543 101.362 34.2103C101.753 33.8221 102.177 33.4177 102.633 32.9971C103.122 32.6089 103.546 32.2854 103.905 32.0266V31.9781C103.97 31.2988 104.019 30.6194 104.051 29.9401C104.084 29.2607 104.1 28.5652 104.1 27.8535C103.937 28.1446 103.742 28.549 103.513 29.0666C103.285 29.5519 103.008 30.0209 102.682 30.4738C102.389 30.9267 102.047 31.3149 101.655 31.6384C101.264 31.9943 100.824 32.1722 100.335 32.1722C100.074 32.1722 99.8461 32.1237 99.6505 32.0266C99.4549 31.9296 99.1778 31.8811 98.8192 31.8811C97.9064 31.8164 97.1403 31.5737 96.5209 31.1532C95.9342 30.7326 95.4615 30.1503 95.1029 29.4063C94.7769 28.6622 94.5487 27.7888 94.4183 26.7859C94.2879 25.7507 94.2227 24.6023 94.2227 23.3406C94.2227 21.8202 94.3042 20.2512 94.4672 18.6337C94.6628 17.0162 94.9888 15.5442 95.4452 14.2179C95.9016 12.8592 96.5046 11.7593 97.2544 10.9182C98.0368 10.0447 99.0148 9.60799 100.188 9.60799C100.319 9.60799 100.482 9.65652 100.677 9.75357C100.906 9.85062 101.134 9.96384 101.362 10.0932C101.623 10.1903 101.867 10.3035 102.095 10.4329C102.356 10.53 102.552 10.5947 102.682 10.627C103.334 10.7564 103.937 10.9182 104.491 11.1123C105.046 11.3064 105.518 11.5652 105.91 11.8887C106.301 12.1798 106.61 12.5842 106.839 13.1018C107.067 13.5871 107.181 14.2017 107.181 14.9458C107.181 15.4634 107.132 15.9324 107.034 16.353C106.969 16.7735 106.936 17.3073 106.936 17.9543C106.936 18.2131 107.034 18.3911 107.23 18.4881C107.425 18.5852 107.637 18.666 107.865 18.7307C108.126 18.7954 108.354 18.8763 108.55 18.9734C108.746 19.0381 108.843 19.1998 108.843 19.4586C108.843 19.5233 108.762 19.6851 108.599 19.9439C108.469 20.1703 108.387 20.3159 108.354 20.3806C108.257 20.6394 108.175 21.0599 108.11 21.6422C108.045 22.1922 107.996 22.8069 107.963 23.4862C107.931 24.1332 107.898 24.8126 107.865 25.5243C107.865 26.2036 107.865 26.8183 107.865 27.3682C107.865 27.7888 107.865 28.3549 107.865 29.0666C107.865 29.746 107.882 30.3121 107.914 30.765H108.11C108.175 30.765 108.24 30.7488 108.306 30.7165C108.371 30.7165 108.42 30.7165 108.452 30.7165C108.746 30.7165 109.137 30.7973 109.626 30.9591C110.147 31.1532 110.408 31.4282 110.408 31.784ZM104.149 16.7897C104.149 16.4339 104.117 16.0295 104.051 15.5766C103.986 15.1237 103.872 14.7031 103.709 14.3149C103.546 13.8944 103.302 13.5547 102.976 13.2959C102.682 13.0048 102.307 12.8592 101.851 12.8592C101.232 12.8592 100.645 13.1018 100.091 13.5871C99.569 14.0723 99.0963 14.7678 98.6725 15.6736C98.2813 16.5471 97.9553 17.6308 97.6945 18.9248C97.4663 20.1865 97.3522 21.6261 97.3522 23.2436C97.3522 23.9229 97.3685 24.6346 97.4011 25.3787C97.4663 26.0904 97.5478 26.7374 97.6456 27.3197C97.776 27.902 97.9553 28.3873 98.1835 28.7755C98.4443 29.1637 98.7703 29.3578 99.1615 29.3578C99.8461 29.3578 100.449 29.0666 100.971 28.4843C101.492 27.902 101.916 27.1903 102.242 26.3492C102.601 25.4757 102.862 24.5861 103.024 23.6803C103.22 22.7422 103.334 21.9334 103.367 21.254C103.399 20.3159 103.448 19.6851 103.513 19.3616C103.579 19.0057 103.644 18.7793 103.709 18.6822C103.905 18.4234 104.019 18.1161 104.051 17.7602C104.117 17.4044 104.149 17.0809 104.149 16.7897ZM103.954 33.6765C103.204 34.1941 102.487 34.922 101.802 35.8601C101.15 36.7983 100.58 37.8173 100.091 38.9172C99.6016 40.0171 99.2104 41.1332 98.917 42.2655C98.6562 43.3977 98.5258 44.4167 98.5258 45.3226C98.5258 45.6461 98.5584 46.0019 98.6236 46.3901C98.6888 46.7783 98.7866 47.1342 98.917 47.4577C99.08 47.8135 99.2919 48.1047 99.5527 48.3311C99.8461 48.5576 100.188 48.6708 100.58 48.6708C101.264 48.6708 101.818 48.3796 102.242 47.7973C102.699 47.2474 103.041 46.5842 103.269 45.8078C103.53 45.0314 103.693 44.2388 103.758 43.4301C103.856 42.6213 103.905 41.9743 103.905 41.4891C103.905 41.392 103.905 41.2464 103.905 41.0523C103.905 40.8582 103.905 40.4862 103.905 39.9363C103.937 39.3863 103.954 38.6099 103.954 37.607C103.954 36.6365 103.954 35.3264 103.954 33.6765Z" fill="#262626"/>
<path d="M125.008 23.6803C125.008 23.9068 124.926 24.4567 124.763 25.3302C124.633 26.1713 124.372 27.0771 123.981 28.0476C123.622 28.9857 123.117 29.8268 122.465 30.5709C121.845 31.3149 121.047 31.687 120.069 31.687C119.026 31.687 118.194 31.3149 117.575 30.5709C116.956 29.8592 116.483 29.0019 116.157 27.9991C115.831 26.9638 115.619 25.8963 115.521 24.7964C115.423 23.6641 115.375 22.726 115.375 21.9819C115.375 21.1408 115.423 20.2997 115.521 19.4586C115.619 18.5852 115.684 17.7279 115.717 16.8868C115.717 16.628 115.586 16.4662 115.326 16.4015C115.065 16.3368 114.82 16.3045 114.592 16.3045C114.201 16.3045 113.956 16.353 113.859 16.45C113.761 16.5471 113.696 16.6603 113.663 16.7897L113.467 18.3425C113.337 19.3777 113.19 20.3806 113.027 21.3511C112.897 22.2892 112.734 23.1304 112.538 23.8744C112.375 24.5861 112.163 25.1684 111.903 25.6213C111.674 26.0419 111.397 26.2521 111.071 26.2521H111.023C110.892 26.2521 110.762 26.2198 110.631 26.1551C110.534 26.0904 110.485 25.9286 110.485 25.6698C110.485 25.5404 110.517 25.3463 110.582 25.0875C110.843 23.9553 111.006 23.0171 111.071 22.2731C111.137 21.529 111.186 20.8658 111.218 20.2835V19.9439C111.218 19.7821 111.218 19.588 111.218 19.3616C111.251 19.1351 111.267 18.8601 111.267 18.5366V17.275C111.267 16.9191 111.267 16.5471 111.267 16.1589C111.267 15.7707 111.234 15.3501 111.169 14.8972L111.023 12.0343C111.023 11.8402 111.104 11.6622 111.267 11.5005C111.43 11.3387 111.642 11.1931 111.903 11.0637C112.163 10.9343 112.441 10.8373 112.734 10.7726C113.027 10.7079 113.288 10.6755 113.516 10.6755C114.071 10.6755 114.348 11.0314 114.348 11.7431V11.9857L114.299 13.0533V13.3444C114.299 13.5709 114.348 13.7165 114.445 13.7812C114.543 13.8135 114.739 13.862 115.032 13.9267H115.179C115.44 13.9591 115.864 13.9914 116.45 14.0238C117.037 14.0561 117.624 14.1208 118.211 14.2179C118.797 14.3149 119.303 14.4767 119.727 14.7031C120.183 14.8972 120.411 15.1884 120.411 15.5766C120.411 15.706 120.378 15.9001 120.313 16.1589C120.248 16.3853 120.167 16.628 120.069 16.8868C119.971 17.1132 119.89 17.3235 119.824 17.5176C119.759 17.7117 119.727 17.8411 119.727 17.9058C119.14 20.138 118.846 22.4672 118.846 24.8934C118.846 25.0875 118.863 25.4434 118.895 25.961C118.928 26.4786 118.993 27.0124 119.091 27.5623C119.189 28.1123 119.335 28.5975 119.531 29.0181C119.727 29.4386 119.971 29.6489 120.264 29.6489C120.753 29.6489 121.193 29.3578 121.585 28.7755C121.976 28.1608 122.318 27.4653 122.612 26.6889C122.905 25.8801 123.133 25.0714 123.296 24.2626C123.492 23.4539 123.622 22.8554 123.687 22.4672C123.753 22.1113 123.85 21.901 123.981 21.8363C124.144 21.7393 124.29 21.6908 124.421 21.6908C124.877 21.6908 125.105 21.9819 125.105 22.5642C125.105 22.6289 125.089 22.8069 125.056 23.098C125.056 23.3568 125.04 23.5509 125.008 23.6803Z" fill="#262626"/>
<path d="M142.95 25.2331C142.885 25.686 142.722 26.2198 142.461 26.8344C142.2 27.4491 141.858 28.0476 141.434 28.6299C141.043 29.1798 140.57 29.6489 140.016 30.0371C139.495 30.4253 138.908 30.6194 138.256 30.6194C137.278 30.6194 136.414 30.2474 135.664 29.5033C134.947 28.7593 134.507 27.7079 134.344 26.3492C134.148 26.8668 133.92 27.4653 133.659 28.1446C133.398 28.824 133.072 29.4548 132.681 30.0371C132.29 30.6194 131.834 31.1047 131.312 31.4929C130.823 31.9134 130.236 32.1237 129.552 32.1237C129.356 32.1237 129.209 32.1075 129.112 32.0752C129.014 32.0428 128.9 31.9943 128.769 31.9296C128.672 31.8972 128.541 31.8649 128.378 31.8325C128.248 31.8002 128.052 31.784 127.791 31.784C127.009 31.784 126.341 31.5252 125.787 31.0076C125.265 30.5224 124.841 29.8915 124.515 29.1151C124.189 28.3387 123.945 27.4976 123.782 26.5918C123.651 25.6537 123.586 24.7802 123.586 23.9715C123.586 22.0304 123.684 20.1865 123.879 18.4396C124.108 16.6927 124.466 15.156 124.955 13.8297C125.444 12.471 126.08 11.4034 126.862 10.627C127.645 9.81827 128.59 9.41389 129.698 9.41389C130.35 9.41389 130.839 9.47859 131.165 9.60799C131.524 9.70504 131.85 9.83444 132.143 9.99619C132.437 10.1256 132.746 10.2712 133.072 10.4329C133.431 10.5947 133.92 10.7241 134.539 10.8211C135.224 11.2093 135.697 11.6784 135.957 12.2284C136.251 12.746 136.43 13.3121 136.495 13.9267C136.593 14.5414 136.626 15.1884 136.593 15.8677C136.561 16.5147 136.593 17.1618 136.691 17.8088C136.691 17.8411 136.756 17.8896 136.887 17.9543C137.05 18.019 137.229 18.0999 137.424 18.197C137.62 18.2617 137.783 18.3749 137.913 18.5366C138.076 18.666 138.158 18.844 138.158 19.0704V19.2645C137.832 20.1056 137.636 20.8497 137.571 21.4967C137.506 22.1437 137.473 22.9201 137.473 23.8259C137.473 24.2788 137.49 24.7802 137.522 25.3302C137.587 25.8478 137.669 26.3492 137.767 26.8344C137.897 27.2873 138.076 27.6756 138.305 27.9991C138.533 28.2902 138.826 28.4358 139.185 28.4358C139.576 28.4358 139.918 28.2417 140.212 27.8535C140.538 27.4653 140.798 27.0285 140.994 26.5433C141.222 26.0257 141.402 25.5081 141.532 24.9905C141.695 24.4729 141.793 24.0847 141.825 23.8259C141.891 23.4377 142.054 23.2436 142.314 23.2436C142.477 23.2436 142.624 23.3406 142.754 23.5347C142.917 23.6965 142.999 24.0038 142.999 24.4567C142.999 24.5861 142.999 24.7155 142.999 24.8449C142.999 24.942 142.983 25.0714 142.95 25.2331ZM133.904 17.372C133.904 17.0162 133.871 16.5956 133.806 16.1104C133.741 15.6251 133.627 15.1722 133.464 14.7517C133.301 14.3311 133.056 13.9753 132.73 13.6841C132.404 13.393 131.964 13.2474 131.41 13.2474C130.497 13.2474 129.747 13.6679 129.161 14.509C128.606 15.3178 128.166 16.2883 127.84 17.4206C127.514 18.5205 127.302 19.6689 127.205 20.8658C127.107 22.0304 127.058 22.9524 127.058 23.6318C127.058 24.1494 127.074 24.7802 127.107 25.5243C127.172 26.236 127.27 26.9153 127.4 27.5623C127.531 28.2093 127.71 28.7593 127.938 29.2122C128.199 29.6651 128.525 29.8915 128.916 29.8915C129.861 29.8915 130.579 29.5357 131.068 28.824C131.589 28.0799 131.98 27.1741 132.241 26.1066C132.502 25.0067 132.681 23.8421 132.779 22.6128C132.909 21.3511 133.024 20.2027 133.121 19.1675C133.187 18.6175 133.333 18.2778 133.561 18.1484C133.79 17.9867 133.904 17.8735 133.904 17.8088V17.372Z" fill="#262626"/>
<path d="M157.927 18.5852C157.47 19.4586 157.047 20.3806 156.655 21.3511C156.264 22.3216 155.971 23.0818 155.775 23.6318C155.743 23.7935 155.645 24.1332 155.482 24.6508C155.351 25.1684 155.189 25.7507 154.993 26.3977C154.83 27.0124 154.683 27.627 154.553 28.2417C154.422 28.8563 154.357 29.3578 154.357 29.746C154.357 29.9077 154.211 30.0533 153.917 30.1827C153.624 30.3121 153.249 30.3768 152.792 30.3768C152.075 30.3768 151.505 30.2797 151.081 30.0856C150.657 29.8915 150.331 29.5842 150.103 29.1637C149.907 28.7108 149.777 28.1285 149.712 27.4167C149.679 26.705 149.663 25.8478 149.663 24.8449V21.2055C149.663 20.9467 149.647 20.6879 149.614 20.4291C149.614 20.1703 149.565 20.0086 149.467 19.9439C149.304 20.0086 149.092 20.4291 148.832 21.2055C148.603 21.9819 148.375 22.9363 148.147 24.0685C147.951 25.1684 147.772 26.333 147.609 27.5623C147.446 28.7916 147.365 29.8915 147.365 30.862C147.365 31.2179 147.169 31.4282 146.778 31.4929C146.419 31.5576 146.012 31.5899 145.555 31.5899C145.425 31.5899 145.197 31.5576 144.871 31.4929C144.577 31.4605 144.268 31.412 143.942 31.3473C143.648 31.2826 143.371 31.1855 143.11 31.0561C142.85 30.9591 142.687 30.8297 142.621 30.6679C142.458 30.2474 142.328 29.5519 142.23 28.5814C142.165 27.6108 142.132 26.1066 142.132 24.0685C142.132 22.8716 142.149 21.4805 142.181 19.8953C142.247 18.3102 142.312 16.45 142.377 14.3149C142.377 14.0238 142.361 13.6518 142.328 13.1989C142.295 12.7136 142.279 12.4386 142.279 12.3739C142.279 12.1151 142.377 11.9696 142.573 11.9372C142.801 11.8725 142.964 11.8402 143.062 11.8402C143.29 11.8402 143.551 11.8725 143.844 11.9372C144.17 11.9696 144.48 12.0181 144.773 12.0828C145.099 12.1475 145.392 12.2284 145.653 12.3254C145.914 12.3901 146.093 12.4548 146.191 12.5195V24.2141C146.354 23.5671 146.533 22.823 146.729 21.9819C146.957 21.1085 147.202 20.2512 147.462 19.4101C147.756 18.569 148.066 17.7926 148.392 17.0809C148.718 16.3692 149.06 15.8516 149.418 15.5281C149.549 15.431 149.793 15.3663 150.152 15.334C150.511 15.2693 150.804 15.2369 151.032 15.2369C151.195 15.2369 151.391 15.2693 151.619 15.334C151.88 15.3663 152.124 15.431 152.352 15.5281C152.581 15.6251 152.776 15.7545 152.939 15.9163C153.135 16.0457 153.249 16.2074 153.281 16.4015V24.2626V24.6993C153.281 24.8934 153.314 24.9905 153.379 24.9905C153.444 24.9905 153.624 24.5538 153.917 23.6803C154.243 22.8069 154.618 21.7716 155.042 20.5747C155.466 19.3777 155.922 18.1484 156.411 16.8868C156.9 15.6251 157.34 14.6223 157.731 13.8782C157.796 13.7488 158.008 13.6841 158.367 13.6841C158.758 13.6518 159.1 13.6356 159.394 13.6356C159.622 13.6356 159.932 13.7165 160.323 13.8782C160.714 14.0076 161.089 14.2017 161.448 14.4605C161.839 14.7193 162.165 15.0105 162.426 15.334C162.719 15.6575 162.866 15.9971 162.866 16.353C162.866 16.4177 162.768 16.6118 162.572 16.9353C162.377 17.2264 162.246 17.5338 162.181 17.8573C161.953 18.7631 161.79 19.6527 161.692 20.5262C161.627 21.3996 161.594 22.5157 161.594 23.8744C161.594 24.4567 161.611 25.039 161.643 25.6213C161.708 26.2036 161.79 26.7374 161.888 27.2226C162.018 27.6755 162.181 28.0476 162.377 28.3387C162.572 28.6299 162.833 28.7755 163.159 28.7755C163.615 28.7755 164.023 28.6299 164.381 28.3387C164.74 28.0152 165.05 27.5947 165.311 27.0771C165.571 26.5595 165.8 25.961 165.995 25.2816C166.191 24.5699 166.354 23.8421 166.484 23.098C166.647 22.3216 166.941 21.9334 167.364 21.9334C167.625 21.9334 167.788 21.9981 167.853 22.1275C167.951 22.2569 168 22.5481 168 23.001C168 23.2598 167.984 23.4377 167.951 23.5347C167.919 23.9553 167.772 24.6185 167.511 25.5243C167.283 26.3977 166.941 27.2873 166.484 28.1932C166.06 29.0666 165.522 29.843 164.87 30.5224C164.218 31.1694 163.469 31.4929 162.621 31.4929C161.611 31.4929 160.779 31.2502 160.127 30.765C159.475 30.3121 158.97 29.6974 158.611 28.921C158.253 28.1123 157.992 27.1903 157.829 26.1551C157.699 25.1199 157.633 24.0362 157.633 22.9039V22.5642L157.927 18.5852Z" fill="#262626"/>
</svg>
