<?xml version="1.0" encoding="iso-8859-1"?>
<!-- Generator: Adobe Illustrator 19.0.0, SVG Export Plug-In . SVG Version: 6.00 Build 0)  -->
<svg version="1.1" id="Capa_1" xmlns="http://www.w3.org/2000/svg" xmlns:xlink="http://www.w3.org/1999/xlink" x="0px" y="0px"
	 viewBox="0 0 512 512" style="enable-background:new 0 0 512 512;" xml:space="preserve">
<g>
	<g>
		<path d="M466.706,66.173c-29.609-29.609-69.224-45.914-111.56-45.914c-36.448,0-70.876,12.088-98.643,34.342
			c-28.166-22.254-62.637-34.342-98.729-34.342c-42.532,0-82.252,16.312-111.86,45.914C16.305,95.776,0,135.398,0,177.727
			c0,42.335,16.305,81.951,45.914,111.553l197.065,197.065c3.591,3.598,8.306,5.396,13.021,5.396c4.703,0,9.405-1.793,13.003-5.372
			l197.224-196.623C495.75,259.561,512,219.89,512,178.034C512,135.791,495.965,96.12,466.706,66.173z M440.056,263.821
			L256.018,447.294L71.956,263.238c-22.647-22.653-35.122-53.023-35.122-85.511s12.475-62.858,35.122-85.511
			c22.653-22.647,53.128-35.122,85.818-35.122c32.169,0,62.705,12.53,85.966,35.269c7.207,7.054,18.767,6.992,25.895-0.147
			c22.653-22.647,53.017-35.122,85.511-35.122c32.494,0,62.858,12.475,85.358,34.974c22.352,22.868,34.661,53.398,34.661,85.966
			C475.165,210.209,462.642,240.738,440.056,263.821z"/>
	</g>
</g>
<g>
</g>
<g>
</g>
<g>
</g>
<g>
</g>
<g>
</g>
<g>
</g>
<g>
</g>
<g>
</g>
<g>
</g>
<g>
</g>
<g>
</g>
<g>
</g>
<g>
</g>
<g>
</g>
<g>
</g>
</svg>
