<?xml version="1.0" encoding="utf-8"?>
<!-- Generator: Adobe Illustrator 25.2.3, SVG Export Plug-In . SVG Version: 6.00 Build 0)  -->
<svg version="1.1" id="레이어_1" xmlns="http://www.w3.org/2000/svg" xmlns:xlink="http://www.w3.org/1999/xlink" x="0px"
	 y="0px" viewBox="0 0 24 24" style="enable-background:new 0 0 24 24;" xml:space="preserve">
<style type="text/css">
	.st0{stroke:#FFFFFF;stroke-width:0.25;stroke-miterlimit:10;}
</style>
<path class="st0" d="M19.9,2H4.1C3.5,2,3,2.4,3,3v19.5c0,0.6,0.4,0.7,0.8,0.3l7.7-6.6c0.2-0.2,0.5-0.2,0.7,0l8,6.6
	c0.5,0.4,0.8,0.2,0.8-0.3V3C21,2.4,20.5,2,19.9,2z M19.3,20l-6-4.9c-0.4-0.3-0.9-0.5-1.5-0.5c-0.5,0-1.1,0.2-1.5,0.5L4.7,20V3.5
	h14.6V20z"/>
</svg>
