<?xml version="1.0" encoding="utf-8"?>
<!-- Generator: Adobe Illustrator 25.2.3, SVG Export Plug-In . SVG Version: 6.00 Build 0)  -->
<svg version="1.1" id="레이어_1" xmlns="http://www.w3.org/2000/svg" xmlns:xlink="http://www.w3.org/1999/xlink" x="0px"
	 y="0px" viewBox="0 0 24 24" style="enable-background:new 0 0 24 24;" xml:space="preserve">
<style type="text/css">
	.st0{fill:none;stroke:#000000;stroke-width:1.3;}
</style>
<path class="st0" d="M2.5,11.8L12,2l9.5,9.7c0.3,0.3,0.5,0.7,0.5,1.1v7.6c0,0.3-0.3,0.5-0.5,0.5H16c-0.3,0-0.5-0.2-0.5-0.5v-4.6
	c0-1.9-1.5-3.5-3.5-3.5s-3.5,1.6-3.5,3.5v4.6C8.5,20.8,8.2,21,8,21H2.5C2.3,21,2,20.8,2,20.5v-7.6C2,12.4,2.2,12,2.5,11.8z"/>
</svg>
