<?xml version="1.0" encoding="utf-8"?>
<!-- Generator: Adobe Illustrator 25.2.3, SVG Export Plug-In . SVG Version: 6.00 Build 0)  -->
<svg version="1.1" id="레이어_1" xmlns="http://www.w3.org/2000/svg" xmlns:xlink="http://www.w3.org/1999/xlink" x="0px"
	 y="0px" viewBox="0 0 24 24" style="enable-background:new 0 0 24 24;" xml:space="preserve">
<style type="text/css">
	.st0{stroke:#FFFFFF;stroke-width:0.5;stroke-miterlimit:10;}
</style>
<g>
	<path class="st0" d="M12,23.4C5.7,23.4,0.6,18.3,0.6,12S5.7,0.6,12,0.6S23.4,5.7,23.4,12S18.3,23.4,12,23.4z M12,2.4
		c-5.3,0-9.6,4.3-9.6,9.6s4.3,9.6,9.6,9.6s9.6-4.3,9.6-9.6S17.3,2.4,12,2.4z"/>
	<path class="st0" d="M15.5,5.8c-0.3-0.2-0.7-0.1-1,0L8.7,9.9c-0.2,0.2-0.4,0.4-0.4,0.7L8,17.5c0,0.3,0.2,0.7,0.5,0.8
		c0.1,0.1,0.3,0.1,0.4,0.1c0.2,0,0.4-0.1,0.5-0.2l5.8-4.1c0.2-0.2,0.4-0.4,0.4-0.7L16,6.6C16,6.3,15.8,5.9,15.5,5.8z M13.9,12.9
		l-3.7-1.8l4-2.8L13.9,12.9z"/>
</g>
</svg>
