<svg height="512pt" viewBox="0 0 512 512" width="512pt" xmlns="http://www.w3.org/2000/svg"><path d="m256 0c-141.160156 0-256 114.839844-256 256s114.839844 256 256 256 256-114.839844 256-256-114.839844-256-256-256zm0 482c-124.617188 0-226-101.382812-226-226s101.382812-226 226-226 226 101.382812 226 226-101.382812 226-226 226zm0 0"/><path d="m352.128906 132.808594-238.972656 105.648437c-5.722656 2.53125-9.273438 8.347657-8.910156 14.59375.363281 6.246094 4.566406 11.609375 10.542968 13.457031l94.277344 29.148438 29.148438 94.273438c1.847656 5.976562 7.210937 10.179687 13.457031 10.542968.292969.019532.585937.027344.878906.027344 5.90625 0 11.300781-3.480469 13.714844-8.9375l105.648437-238.972656c2.507813-5.667969 1.269532-12.289063-3.113281-16.671875-4.378906-4.382813-11.007812-5.617188-16.671875-3.109375zm-97.09375 209.960937-19.644531-63.539062c-1.464844-4.730469-5.167969-8.433594-9.902344-9.898438l-63.539062-19.644531 166.847656-73.765625zm0 0"/></svg>